<svg id="Layer_1" data-name="Layer 1" xmlns="http://www.w3.org/2000/svg" viewBox="0 0 53.98 24.88"><title>fgheader</title><path d="M207.41,332.63c-.75-.21-1.47-.45-2.21-.61a13.47,13.47,0,0,0-5.06-.24,7.76,7.76,0,0,0-4.45,2.11,6.86,6.86,0,0,0-1.82,3.65,9.57,9.57,0,0,0,.31,5.22,6.77,6.77,0,0,0,5.6,4.67,10,10,0,0,0,3.85-.09c.4-.08.43-.11.43-.51V342.1h-3.74v-4.28h9.05V350.3a.39.39,0,0,1-.31.44,27,27,0,0,1-8.55,1.25,16.08,16.08,0,0,1-5.57-1,10.5,10.5,0,0,1-6.71-7.93,14.35,14.35,0,0,1-.34-4.13,12.08,12.08,0,0,1,3.8-8.34,12.68,12.68,0,0,1,5.24-2.82,18.26,18.26,0,0,1,5.84-.63,18.56,18.56,0,0,1,4.38.66c.41.13.81.29,1.22.42a.2.2,0,0,1,.15.28c-.36,1.35-.71,2.7-1.07,4.05C207.45,332.58,207.43,332.6,207.41,332.63Z" transform="translate(-155.39 -327.12)"/><path d="M170.23,331.89h-9.31v5.57h8.71V342h-8.74v9.77h-5.5V327.4h14.84Z" transform="translate(-155.39 -327.12)"/><path d="M177.92,333.08h2.4v5.31h5.1v2.3h-5.07v5.38h-2.42v-5.35h-5.11v-2.31h5.1Z" transform="translate(-155.39 -327.12)"/></svg>