<?xml version="1.0" standalone="no"?>
<!DOCTYPE svg PUBLIC "-//W3C//DTD SVG 20010904//EN"
 "http://www.w3.org/TR/2001/REC-SVG-20010904/DTD/svg10.dtd">
<svg version="1.0" xmlns="http://www.w3.org/2000/svg"
 width="350.000000pt" height="350.000000pt" viewBox="0 0 350.000000 350.000000"
 preserveAspectRatio="xMidYMid meet">
<metadata>
Created by potrace 1.11, written by Peter Selinger 2001-2013
</metadata>
<g transform="translate(0.000000,350.000000) scale(0.100000,-0.100000)"
fill="#000000" stroke="none">
<path d="M3018 2540 c-2 -6 -47 -12 -103 -13 -56 -2 -106 -7 -113 -11 -7 -4
-12 -3 -12 2 0 5 -7 9 -15 9 -8 0 -13 -3 -10 -6 12 -11 -110 -29 -123 -18 -10
7 -12 7 -10 -2 4 -15 -119 -64 -135 -54 -5 3 -7 1 -4 -4 8 -13 -20 -26 -35
-16 -7 4 -8 1 -4 -6 5 -8 0 -14 -13 -18 -12 -3 -21 -10 -21 -16 0 -6 -3 -8 -6
-4 -4 3 -12 1 -20 -6 -38 -34 -50 -42 -64 -42 -8 -1 -14 -6 -13 -12 2 -7 -11
-23 -27 -37 -17 -13 -30 -28 -30 -32 0 -4 -11 -19 -24 -33 -14 -15 -40 -56
-59 -93 -19 -37 -38 -64 -41 -60 -4 3 -4 -2 0 -12 5 -13 1 -23 -11 -32 -10 -8
-14 -14 -8 -14 6 0 4 -24 -8 -64 -9 -36 -19 -82 -20 -103 -1 -21 -6 -46 -11
-55 -5 -10 -5 -18 0 -18 10 0 9 -51 -1 -67 -5 -8 -3 -13 4 -13 10 0 10 -3 2
-11 -7 -7 -8 -18 -3 -28 18 -32 28 -109 16 -121 -6 -7 -7 -11 -1 -10 24 5 27
-1 9 -15 -18 -15 -18 -15 0 -8 13 4 17 3 13 -4 -4 -6 -1 -14 5 -16 8 -3 6 -6
-4 -6 -10 -1 -18 -5 -18 -11 0 -5 7 -7 15 -4 14 6 19 -6 18 -43 -1 -7 3 -10 8
-7 8 5 13 -9 10 -28 0 -5 3 -8 7 -8 5 0 17 -18 27 -40 10 -22 23 -40 28 -40 6
0 2 -7 -9 -15 -15 -12 -16 -14 -2 -9 10 3 25 -1 33 -10 9 -9 12 -16 6 -16 -6
0 -11 -4 -11 -10 0 -5 6 -7 14 -4 8 3 19 -3 26 -16 6 -11 15 -18 20 -15 9 6
23 -12 26 -33 2 -9 -3 -11 -14 -7 -13 5 -14 4 -5 -6 10 -10 16 -9 28 1 20 16
26 10 27 -29 1 -18 5 -34 9 -37 5 -3 6 2 3 10 -5 12 0 16 20 16 29 0 37 -20 9
-21 -12 0 -13 -2 -5 -6 7 -3 20 1 29 9 15 12 16 10 10 -17 -3 -16 -4 -24 -1
-17 5 10 9 10 20 1 8 -6 12 -14 10 -18 -3 -4 4 -7 14 -8 11 -1 22 2 25 8 4 5
-2 6 -12 2 -15 -6 -16 -5 -3 9 8 9 17 12 18 7 2 -5 7 -7 11 -4 5 2 6 -8 4 -23
-3 -25 -3 -26 6 -4 12 26 15 27 32 5 8 -10 9 -14 2 -10 -6 4 -15 2 -19 -4 -4
-7 -3 -9 4 -5 6 3 15 -2 21 -11 8 -14 11 -15 12 -3 1 8 1 21 0 28 -1 6 2 12 8
12 5 0 8 -11 7 -25 -2 -14 1 -22 7 -18 5 3 17 -3 25 -13 11 -14 13 -15 9 -3
-4 11 3 20 18 27 19 9 23 8 19 -2 -6 -15 11 -29 40 -33 11 -2 26 -9 34 -16 13
-10 14 -9 2 9 -9 14 -22 21 -36 19 -14 -1 -21 2 -17 8 4 6 1 7 -8 2 -8 -5 -10
-4 -6 0 10 12 37 15 37 5 0 -5 15 -7 33 -5 23 3 28 2 17 -5 -13 -8 -12 -12 4
-27 12 -11 15 -12 8 -3 -9 13 -7 18 8 27 15 10 21 9 32 -5 12 -15 11 -16 -4
-4 -11 9 -18 10 -23 2 -3 -5 1 -11 9 -11 36 -3 41 -5 38 -18 -1 -7 2 -10 8 -6
8 5 8 11 1 19 -6 7 -8 16 -5 19 4 3 18 -8 32 -24 18 -22 27 -27 33 -18 4 7 5
17 3 21 -3 4 0 8 6 8 6 0 9 4 6 8 -2 4 6 8 19 8 13 0 22 -3 19 -7 -2 -4 2 -9
8 -12 7 -3 3 -4 -9 -4 -12 1 -19 5 -16 11 3 5 1 6 -5 2 -6 -4 -8 -14 -5 -22 3
-9 9 -12 12 -7 3 4 13 8 21 8 8 0 14 7 12 16 -3 23 22 31 45 13 17 -14 16 -14
-4 -4 -16 7 -23 7 -23 0 0 -5 8 -11 18 -11 9 -1 31 -2 47 -3 17 -1 40 4 52 11
19 11 24 10 32 -5 6 -9 11 -11 11 -5 0 7 3 12 8 12 4 -1 10 0 15 1 12 4 26 7
37 9 6 0 10 6 10 12 0 8 -4 8 -13 0 -10 -8 -14 -7 -14 4 0 8 3 13 5 10 3 -3
12 1 20 8 11 8 14 8 9 0 -4 -6 -3 -15 3 -18 8 -5 7 -12 -2 -23 -12 -15 -11
-16 5 -3 9 7 16 20 15 27 -2 7 2 13 7 12 6 0 9 -3 8 -7 -1 -4 8 -6 20 -5 12 1
25 3 30 3 4 1 7 6 7 12 0 8 -6 7 -17 -2 -15 -13 -15 -12 -3 8 13 20 15 20 27
5 12 -16 13 -15 11 3 -2 16 2 20 25 18 15 -1 27 2 27 7 0 4 8 11 17 14 16 6
16 5 0 -12 -16 -18 -16 -20 -2 -26 10 -3 14 -2 10 5 -4 6 0 18 8 27 20 22 20
27 3 61 -12 22 -12 31 -3 40 7 7 13 16 13 22 1 5 2 10 4 12 1 1 3 10 5 20 3
14 0 16 -10 7 -10 -8 -15 -8 -21 1 -4 8 -3 9 4 5 7 -4 12 -3 12 3 0 5 -5 13
-10 16 -8 5 -7 11 1 21 6 8 7 14 2 14 -5 0 -9 9 -10 20 -1 11 2 20 6 20 4 0 8
-6 9 -12 4 -47 24 -79 37 -59 4 7 1 10 -7 9 -8 -2 -13 6 -12 20 1 12 -3 22 -9
22 -7 0 -7 4 1 12 19 19 14 30 -10 24 -13 -3 -17 -3 -10 0 6 3 9 11 5 17 -12
20 -14 47 -2 47 5 0 8 4 4 9 -3 5 -2 12 3 15 5 3 7 19 6 35 -1 17 2 34 7 37 5
3 9 10 9 17 0 6 -6 2 -14 -8 -8 -11 -12 -23 -10 -27 2 -4 1 -9 -4 -12 -4 -2
-8 6 -8 19 0 13 4 21 8 19 11 -7 10 8 -2 26 -5 9 -5 19 1 26 7 8 6 14 -1 19
-13 8 -13 25 1 25 5 0 7 -5 3 -12 -4 -7 -3 -8 5 -4 6 4 9 11 6 16 -3 5 -1 11
5 15 5 3 10 11 10 18 0 6 -6 3 -13 -8 -11 -14 -16 -15 -22 -5 -5 8 -4 11 3 6
12 -7 11 32 -3 53 -5 9 -4 12 2 8 14 -9 23 27 11 44 -8 11 -9 10 -4 -3 3 -10
2 -19 -2 -22 -16 -9 -10 33 6 46 9 7 13 8 9 2 -4 -7 0 -17 7 -23 10 -9 16 -9
21 -1 4 6 2 9 -3 8 -6 -2 -10 -1 -9 2 0 3 -5 15 -12 28 -11 20 -10 26 6 39 10
8 13 12 6 9 -14 -7 -45 3 -39 13 3 4 1 13 -3 20 -6 10 -39 13 -122 13 -72 0
-119 4 -128 11 -12 9 -13 9 -7 0 4 -8 2 -13 -6 -13 -8 0 -20 6 -27 13 -11 10
-13 10 -7 0 4 -8 2 -13 -6 -13 -8 0 -20 6 -27 13 -11 10 -13 10 -7 0 4 -8 2
-13 -6 -13 -8 0 -20 6 -27 13 -11 10 -13 10 -7 0 4 -8 2 -13 -6 -13 -8 0 -20
6 -27 13 -11 10 -13 10 -7 0 4 -8 2 -13 -6 -13 -8 0 -20 6 -27 13 -9 7 -11 7
-8 1 5 -8 -8 -12 -43 -11 -59 0 -63 -3 -62 -43 0 -21 -3 -28 -11 -23 -9 5 -9
3 -1 -8 7 -8 12 -26 12 -42 0 -24 -3 -26 -17 -15 -13 10 -13 9 1 -8 21 -24 19
-82 -2 -111 -11 -14 -11 -16 0 -6 11 10 16 9 26 -5 8 -9 14 -25 14 -34 0 -9 5
-20 11 -24 7 -4 9 0 5 14 -7 21 18 39 29 21 4 -5 11 -7 16 -3 5 3 6 10 3 16
-4 7 -2 8 5 4 6 -4 9 -12 6 -17 -8 -12 8 -12 21 1 7 7 11 6 11 -4 0 -8 -4 -13
-8 -10 -4 2 -10 0 -14 -6 -3 -5 -11 -10 -16 -10 -6 0 -7 4 -4 10 3 6 -1 7 -9
4 -10 -4 -16 -1 -16 7 0 7 -2 10 -5 7 -12 -12 8 -35 28 -33 12 1 22 3 22 5 0
1 20 3 44 4 36 2 44 -2 51 -20 5 -12 13 -25 18 -28 5 -3 10 -17 10 -31 0 -15
-5 -22 -12 -18 -6 4 -4 -2 4 -12 8 -10 10 -16 3 -12 -6 4 -15 3 -18 -3 -4 -6
-1 -9 5 -8 8 2 13 -14 15 -44 2 -33 -1 -46 -9 -41 -6 4 -6 0 2 -9 15 -19 5
-51 -15 -44 -9 4 -11 2 -7 -6 5 -7 0 -9 -13 -6 -12 3 -27 2 -34 -3 -8 -4 -20
-3 -28 4 -12 9 -13 9 -8 0 6 -9 -6 -12 -43 -10 -28 0 -53 4 -56 8 -2 3 -18 5
-35 3 -24 -3 -30 -1 -25 11 3 8 1 15 -4 15 -6 0 -10 -7 -10 -15 0 -9 -6 -12
-15 -9 -8 4 -12 11 -9 16 4 6 -2 8 -15 3 -12 -4 -21 -2 -21 4 0 6 -3 10 -7 9
-5 -1 -27 7 -51 17 -31 13 -40 20 -30 26 10 7 8 9 -6 9 -10 0 -27 10 -37 22
-11 11 -19 17 -19 13 0 -5 -13 9 -29 31 -19 24 -26 43 -20 49 13 13 11 22 -7
29 -14 5 -15 4 -4 -9 7 -8 8 -15 4 -15 -5 0 -15 9 -22 21 -8 12 -9 18 -3 14 6
-3 11 1 11 10 0 9 -4 14 -9 10 -5 -3 -13 0 -17 6 -4 7 -3 9 4 5 6 -3 13 -2 17
4 3 5 0 10 -8 10 -19 0 -31 31 -17 40 8 5 6 9 -5 14 -9 3 -14 10 -11 15 4 5 3
11 -1 14 -5 2 -2 2 6 0 11 -3 10 2 -4 17 -11 12 -13 20 -6 20 7 0 9 5 4 12 -4
7 -8 30 -9 52 -1 21 2 33 6 26 4 -6 6 -25 5 -41 -1 -16 1 -26 5 -24 5 3 7 13
5 23 -1 9 3 23 9 31 9 12 8 13 -2 7 -11 -7 -13 -1 -9 28 3 20 1 33 -4 30 -5
-3 -7 -10 -4 -15 4 -5 1 -9 -4 -9 -14 0 -14 17 -1 25 6 3 8 17 6 31 -3 14 -1
22 5 19 5 -4 9 1 9 9 0 10 6 13 18 9 14 -5 14 -3 -3 11 -20 17 -20 17 2 13 13
-3 27 2 35 12 11 14 11 14 -4 3 -10 -8 -18 -9 -22 -3 -4 6 -14 8 -24 5 -14 -5
-14 -4 -3 4 8 6 20 8 27 5 6 -2 15 1 20 8 4 8 3 10 -4 5 -7 -4 -12 -2 -12 4 0
6 -4 9 -8 6 -5 -3 -9 1 -9 9 0 8 5 11 11 7 20 -12 35 -10 29 4 -3 8 -10 11
-17 7 -6 -3 -7 -2 -3 3 5 5 14 9 20 9 5 0 12 6 15 14 3 8 0 11 -7 7 -6 -4 -11
-3 -11 2 0 6 7 13 16 16 8 3 12 2 9 -3 -3 -5 -1 -12 5 -16 6 -4 10 5 10 20 0
17 -4 24 -12 19 -7 -4 -8 -3 -4 4 4 6 14 8 23 5 12 -5 14 -3 8 7 -5 8 -4 11 3
6 6 -3 13 2 17 13 3 11 14 19 25 18 10 -1 16 -5 14 -9 -3 -5 -10 -5 -16 -2 -7
5 -8 2 -3 -6 5 -7 4 -11 -1 -8 -5 3 -17 -4 -26 -16 -13 -18 -13 -23 -3 -23 8
0 12 4 9 9 -3 4 6 13 20 20 14 6 26 15 26 20 0 5 5 6 11 3 6 -4 5 2 -2 13 -7
12 -17 18 -23 15 -5 -3 -6 -1 -2 6 4 6 11 9 16 6 5 -3 20 0 32 7 13 7 28 13
33 13 6 1 9 6 8 12 -1 5 9 9 23 7 19 -2 24 1 20 12 -4 10 -2 13 7 7 23 -14 39
-12 33 4 -6 13 -4 14 9 3 12 -10 13 -15 3 -21 -6 -4 -16 -5 -20 -3 -4 3 -5 -2
-1 -11 4 -13 8 -14 14 -4 4 7 23 14 41 15 18 1 34 3 36 4 7 7 28 4 35 -5 5 -6
7 -4 6 5 -1 8 -1 22 0 30 1 13 3 13 10 1 5 -8 7 -21 4 -30 -3 -12 -2 -12 7 2
6 9 8 22 5 27 -3 6 -1 10 4 10 6 0 11 -7 11 -15 0 -8 5 -15 11 -15 5 0 8 -4 5
-9 -4 -5 2 -8 11 -6 10 2 21 4 26 4 4 1 7 9 7 19 0 14 2 15 10 2 6 -9 5 -20
-3 -30 -10 -13 -10 -13 4 -2 10 7 15 21 12 32 -3 11 0 20 6 20 5 0 8 -7 5 -15
-4 -9 0 -15 10 -15 9 0 16 4 16 8 0 5 7 9 15 9 8 0 11 -5 8 -10 -4 -6 0 -8 10
-4 11 4 14 2 10 -9 -4 -11 -9 -12 -16 -5 -6 6 -14 11 -18 11 -9 0 -5 -27 6
-37 4 -4 5 -2 0 6 -5 9 -3 12 6 9 8 -3 25 4 38 16 l25 21 -19 -30 c-14 -23
-15 -27 -3 -17 13 10 17 10 21 0 4 -10 10 -8 23 7 16 20 16 20 12 0 -4 -17 0
-21 23 -20 15 0 31 4 35 8 4 4 14 1 22 -6 13 -10 15 -9 10 10 -3 13 0 27 7 33
8 6 12 20 10 31 -3 12 0 17 7 13 8 -5 9 -1 4 12 -6 15 -5 16 5 7 10 -10 9 -15
-1 -28 -7 -8 -9 -15 -5 -15 5 0 0 -9 -10 -20 -11 -12 -13 -20 -6 -20 7 0 9 -4
6 -10 -3 -5 -2 -10 4 -10 5 0 10 8 10 18 0 23 5 44 14 59 4 7 3 21 -3 32 -11
21 2 37 20 26 6 -3 7 1 4 9 -3 9 -10 14 -14 13 -4 -1 -10 2 -12 7 -1 5 7 10
19 11 24 2 45 15 24 15 -7 0 -9 5 -5 12 4 7 3 8 -5 4 -6 -4 -9 -12 -6 -17 4
-5 -2 -6 -11 -2 -11 4 -13 8 -6 11 7 2 10 8 6 13 -3 5 2 9 10 9 9 0 16 5 16
10 0 5 -5 9 -12 7 -18 -3 -16 27 2 35 12 5 12 7 -2 7 -10 1 -18 5 -18 10 0 4
-16 11 -36 14 -20 3 -43 14 -51 24 -8 10 -11 12 -7 4 5 -10 1 -11 -16 -6 -12
4 -30 8 -39 10 -9 1 -15 8 -13 16 3 10 0 10 -12 -1 -12 -9 -26 -10 -53 -3 -21
5 -52 8 -70 7 -24 -2 -30 1 -26 12 3 8 3 14 0 14 -3 0 -7 -5 -9 -10z m-148
-322 c0 -9 3 -8 10 2 8 13 11 13 22 1 8 -9 9 -11 1 -7 -6 3 -14 2 -17 -3 -5
-8 -18 -8 -44 -2 -2 1 0 6 3 11 9 14 25 12 25 -2z m150 2 c0 -16 -17 -20 -28
-7 -8 10 -6 13 9 14 10 1 19 -2 19 -7z m170 -26 c0 -8 -5 -12 -10 -9 -6 4 -8
11 -5 16 9 14 15 11 15 -7z m70 -13 c0 -13 -29 -8 -34 5 -3 7 2 10 15 7 10 -3
19 -9 19 -12z m166 -386 c1 -14 -2 -25 -6 -25 -6 0 -7 36 -1 48 4 7 6 -1 7
-23z m-419 -210 c0 -8 -4 -15 -9 -15 -4 0 -8 7 -8 15 0 8 4 15 8 15 5 0 9 -7
9 -15z m20 -7 c-3 -8 -6 -5 -6 6 -1 11 2 17 5 13 3 -3 4 -12 1 -19z m39 -11
c7 -2 17 -47 9 -47 -4 0 -35 61 -35 69 0 3 4 0 9 -7 4 -8 12 -14 17 -15z m365
-360 c-6 -8 -9 -17 -6 -21 3 -3 -1 -1 -7 4 -10 9 -10 13 2 20 21 13 24 12 11
-3z m-5 -113 c1 -9 0 -13 -4 -10 -3 4 -7 14 -8 22 -1 9 0 13 4 10 3 -4 7 -14
8 -22z m-960 -24 c9 0 12 -5 9 -10 -8 -13 -35 6 -34 24 0 7 2 6 6 -1 2 -7 11
-13 19 -13z m156 -54 c7 4 8 2 4 -5 -9 -13 -26 -5 -25 12 0 9 2 8 6 -1 2 -6
10 -9 15 -6z m482 -22 c3 -8 2 -12 -4 -9 -6 3 -10 0 -11 -7 0 -10 -2 -11 -6 0
-4 10 -8 10 -21 0 -15 -12 -16 -11 -3 4 7 10 17 15 22 12 5 -3 9 0 9 5 0 16 7
13 14 -5z m73 3 c-5 -15 -31 -16 -50 -2 -14 10 -11 12 19 12 19 0 33 -5 31
-10z m-280 -33 c0 -17 -11 -18 -25 -1 -8 10 -7 13 7 14 10 1 18 -5 18 -13z"/>
<path d="M118 2512 l-28 -3 0 -133 c0 -92 -4 -136 -13 -145 -9 -11 -9 -13 0
-7 9 5 13 -1 13 -19 0 -18 -4 -24 -12 -19 -10 6 -10 4 0 -7 7 -8 12 -40 12
-80 0 -45 -4 -69 -12 -72 -10 -4 -10 -6 0 -6 6 -1 12 -10 12 -22 0 -11 -4 -17
-10 -14 -5 3 -10 1 -10 -4 0 -6 5 -11 10 -11 15 0 13 -157 -3 -163 -9 -4 -9
-6 1 -6 16 -1 16 -48 -1 -54 -9 -4 -9 -6 1 -6 6 -1 12 -10 12 -22 0 -13 -4
-18 -12 -13 -10 6 -10 4 0 -7 16 -18 16 -146 0 -152 -10 -4 -10 -6 0 -6 6 -1
12 -10 12 -22 0 -11 -4 -17 -10 -14 -5 3 -10 1 -10 -4 0 -6 5 -11 10 -11 15 0
13 -157 -2 -163 -10 -4 -10 -6 0 -6 6 -1 12 -12 12 -25 0 -13 -6 -27 -12 -29
-10 -4 -10 -6 0 -6 6 -1 12 -10 12 -22 0 -13 -4 -18 -12 -13 -10 6 -10 4 0 -7
7 -8 12 -41 12 -84 0 -49 -3 -65 -10 -55 -12 19 -13 5 -1 -18 6 -9 12 -29 16
-44 3 -16 12 -28 20 -28 8 0 15 -5 15 -12 0 -6 2 -9 5 -6 10 9 -7 38 -18 31
-6 -3 -7 -1 -3 6 6 9 13 9 31 -3 17 -11 25 -12 35 -3 10 9 11 9 6 0 -9 -17 6
-17 23 -1 11 10 13 10 7 1 -9 -17 6 -17 23 -1 11 10 13 10 7 1 -4 -7 -3 -13 3
-13 5 0 11 5 13 12 3 8 7 6 10 -4 5 -12 1 -15 -17 -13 -13 1 -26 -4 -29 -11
-4 -10 1 -11 19 -4 19 7 27 5 35 -8 8 -14 9 -12 6 10 -3 15 0 30 5 34 5 3 9 2
8 -3 -5 -27 2 -35 27 -29 19 5 24 4 18 -6 -6 -10 -5 -11 8 -1 8 7 17 10 20 7
3 -2 8 2 11 11 7 17 -8 21 -18 5 -8 -13 -25 -3 -24 13 0 8 2 8 6 -1 4 -10 8
-10 19 -1 15 13 44 -3 44 -25 0 -6 -5 -4 -11 4 -7 10 -9 11 -7 2 5 -20 23 -15
23 6 0 24 18 43 27 29 4 -6 6 14 4 45 -1 32 0 56 3 53 4 -2 15 4 26 12 19 15
19 15 -5 8 -22 -7 -24 -6 -11 9 12 14 12 19 1 29 -9 9 -11 9 -6 0 3 -6 3 -14
-2 -17 -4 -2 -8 6 -8 19 0 13 3 22 7 19 4 -2 10 3 13 12 3 8 2 13 -3 10 -5 -3
-15 2 -22 11 -10 12 -11 15 -1 9 9 -6 11 -1 8 18 -3 19 -1 23 11 19 12 -5 12
-7 1 -14 -7 -5 -8 -9 -2 -9 22 0 23 13 4 38 -11 13 -17 28 -15 32 3 5 1 12 -5
15 -8 5 -7 11 1 21 6 7 9 21 5 29 -5 13 -2 14 17 4 21 -11 21 -11 6 7 -23 27
-34 48 -22 41 6 -4 19 3 29 16 10 12 12 16 4 10 -18 -17 -38 -17 -22 -1 16 16
15 33 -1 20 -10 -8 -12 -3 -12 23 1 18 6 40 13 48 7 7 8 18 4 22 -4 5 -1 5 6
1 7 -4 12 -1 12 8 0 8 4 18 10 21 11 7 2 -23 -13 -42 -6 -8 -6 -13 0 -13 5 0
16 11 23 25 10 19 19 24 38 20 19 -3 23 -1 18 13 -5 15 -4 15 8 -1 8 -11 17
-14 20 -8 8 12 46 10 46 -3 0 -5 3 -6 7 -3 3 4 13 1 21 -6 13 -10 15 -9 9 6
-6 15 -4 16 13 7 11 -6 20 -7 20 -3 0 4 7 0 15 -11 7 -10 18 -15 24 -12 5 4
13 2 16 -4 10 -15 37 9 31 27 -4 10 -1 11 12 4 17 -9 24 -11 43 -11 5 0 7 -4
4 -10 -3 -5 -1 -10 4 -10 6 0 11 5 11 11 0 5 4 8 9 4 5 -3 13 0 17 6 4 7 3 9
-2 6 -6 -3 -16 -1 -24 4 -12 7 -10 8 7 6 29 -4 54 -27 46 -41 -4 -7 -1 -7 8 1
12 10 18 10 29 0 10 -10 11 -9 5 2 -6 11 -4 13 9 8 9 -4 15 -3 11 2 -3 5 1 11
7 14 7 2 1 4 -14 3 -14 0 -24 -4 -22 -7 1 -3 -3 -6 -10 -6 -8 0 -12 7 -9 14 3
8 12 12 21 8 8 -3 21 3 28 12 16 21 18 37 4 28 -6 -3 -7 1 -3 10 5 14 8 14 15
3 7 -9 8 -8 4 6 -4 11 -1 23 6 28 10 6 10 8 1 8 -7 0 -13 7 -13 16 0 14 2 15
18 3 15 -13 16 -12 3 4 -9 11 -17 14 -25 8 -8 -7 -12 -4 -12 8 0 13 5 17 16
13 12 -5 13 -3 2 10 -7 8 -9 24 -5 33 4 13 3 16 -5 11 -8 -5 -10 -2 -5 9 4 12
8 13 13 5 5 -8 9 -7 13 3 3 9 -2 21 -11 29 -11 9 -14 10 -8 1 4 -7 2 -13 -3
-13 -6 0 -11 9 -11 21 0 13 4 18 13 13 9 -5 9 -4 1 5 -6 7 -22 13 -35 13 -13
1 -30 6 -38 12 -11 8 -13 8 -8 0 4 -7 -2 -11 -18 -11 -15 0 -22 4 -18 11 3 6
0 6 -8 -1 -7 -7 -17 -13 -22 -13 -4 0 -5 6 -1 13 6 9 4 9 -7 1 -20 -15 -61
-16 -52 -1 5 9 3 9 -8 1 -20 -15 -59 -15 -59 -1 0 8 -4 7 -9 -2 -8 -13 -12
-13 -27 0 -10 8 -15 9 -11 3 8 -14 -75 -14 -85 0 -5 8 -8 7 -8 0 0 -15 -50
-15 -50 0 0 7 -3 6 -8 -2 -5 -7 -19 -10 -33 -8 -13 3 -28 5 -34 5 -5 1 -3 5 5
11 9 5 19 5 25 0 8 -7 12 -5 12 5 0 8 -4 12 -9 9 -4 -3 -8 4 -8 15 0 12 5 21
12 21 6 0 9 2 6 5 -10 10 -37 -7 -32 -20 3 -7 2 -15 -3 -18 -4 -3 -8 8 -8 23
-1 16 3 26 8 23 5 -3 7 0 5 8 -3 8 -11 13 -18 11 -10 -2 -11 0 -3 10 6 7 10
28 8 45 -1 18 1 30 6 27 5 -3 6 -10 3 -16 -4 -7 -2 -8 4 -4 6 4 8 14 5 23 -5
12 -3 14 7 8 9 -5 11 -4 6 4 -4 6 -11 9 -15 7 -4 -3 -13 -1 -21 5 -12 7 -12 9
-1 9 8 0 11 6 7 16 -9 23 3 37 19 24 9 -8 13 -7 11 2 0 7 4 13 9 13 6 0 9 -4
7 -8 -1 -5 2 -6 8 -2 6 4 5 13 -2 25 -11 16 -14 17 -21 5 -4 -8 -13 -15 -18
-15 -6 0 -4 7 5 15 8 9 13 23 10 33 -5 14 -4 15 5 2 10 -13 12 -13 22 0 8 12
9 9 3 -10 -3 -14 -3 -22 1 -18 5 4 13 1 19 -8 10 -13 12 -13 12 5 0 11 -4 17
-8 15 -15 -9 -8 3 9 17 13 11 15 11 9 1 -6 -11 0 -13 30 -11 22 2 43 8 47 14
5 6 7 4 4 -5 -2 -8 -9 -16 -15 -16 -7 -1 -15 -3 -19 -4 -5 -1 -12 -2 -16 -1
-5 1 -6 -3 -2 -9 3 -6 12 -7 18 -3 17 11 41 10 49 -2 5 -6 8 -5 8 3 0 7 5 10
10 7 6 -4 7 -12 3 -18 -3 -7 3 -3 15 7 12 11 22 20 22 21 0 2 -14 1 -30 0 -25
-2 -28 0 -19 11 8 10 15 11 24 4 8 -6 16 -5 25 3 10 10 11 9 5 -1 -6 -11 1
-13 31 -11 22 2 43 8 47 14 5 6 7 4 4 -5 -2 -8 -9 -16 -15 -16 -7 -1 -15 -3
-19 -4 -5 -1 -12 -2 -16 -1 -5 1 -6 -3 -2 -9 3 -6 12 -7 18 -3 16 10 41 10 48
0 3 -5 9 -1 12 8 4 9 3 13 -3 10 -16 -10 -11 1 7 16 11 10 14 10 9 2 -5 -10 4
-13 33 -13 26 0 41 5 41 13 0 9 2 9 9 -1 4 -8 12 -14 16 -14 4 0 12 6 17 14 8
10 9 10 5 -2 -2 -8 -13 -15 -25 -15 -12 0 -22 -3 -22 -7 0 -5 0 -11 0 -15 0
-4 5 -2 11 4 6 6 17 9 23 7 6 -2 21 4 33 15 18 17 22 18 27 5 3 -8 2 -12 -3
-9 -5 3 -13 0 -17 -7 -4 -7 -4 -10 1 -6 4 4 14 0 22 -10 12 -16 13 -16 7 0 -4
11 0 20 11 24 10 4 14 12 10 23 -11 26 -13 71 -4 65 5 -3 6 -10 3 -16 -5 -7
-2 -8 6 -3 9 6 11 4 5 -6 -7 -12 -6 -12 6 0 11 10 11 15 2 18 -8 3 -13 24 -13
54 0 27 -4 49 -8 49 -5 0 -9 6 -9 14 0 8 6 12 14 9 7 -3 11 -8 9 -12 -3 -4 0
-13 5 -21 7 -12 8 -11 6 5 -1 11 -6 25 -10 32 -4 6 -1 14 5 17 7 3 2 3 -12 0
l-25 -5 25 22 25 22 -24 -8 c-13 -4 -21 -3 -19 1 3 5 3 17 -1 27 -6 17 -34 18
-436 20 -237 1 -442 1 -457 -1z m902 -286 c0 -3 -4 -8 -10 -11 -5 -3 -10 -1
-10 4 0 6 5 11 10 11 6 0 10 -2 10 -4z m-35 -525 c3 -5 2 -12 -3 -15 -5 -3 -9
1 -9 9 0 17 3 19 12 6z m-225 -108 c0 5 5 5 10 2 6 -4 8 -11 4 -16 -4 -6 -10
-6 -18 0 -7 6 -16 8 -19 4 -4 -3 -7 -2 -7 4 0 17 13 24 22 11 4 -7 8 -9 8 -5z
m-313 -25 c-3 -8 -6 -5 -6 6 -1 11 2 17 5 13 3 -3 4 -12 1 -19z m-120 -573 c0
-8 -4 -15 -9 -15 -10 0 -11 14 -1 23 9 10 10 9 10 -8z"/>
<path d="M3365 2420 c-3 -6 1 -7 9 -4 18 7 21 14 7 14 -6 0 -13 -4 -16 -10z"/>
<path d="M1046 2343 c-6 -14 -5 -15 5 -6 7 7 10 15 7 18 -3 3 -9 -2 -12 -12z"/>
<path d="M3340 2297 c0 -2 6 -10 14 -16 11 -9 16 -9 22 1 4 7 4 10 -1 6 -4 -4
-14 -3 -22 3 -7 6 -13 9 -13 6z"/>
<path d="M1020 2256 c0 -3 9 -10 20 -16 11 -6 20 -8 20 -6 0 3 -9 10 -20 16
-11 6 -20 8 -20 6z"/>
<path d="M3350 2231 c0 -6 4 -13 10 -16 6 -3 7 1 4 9 -7 18 -14 21 -14 7z"/>
<path d="M706 2183 c-6 -14 -5 -15 5 -6 7 7 10 15 7 18 -3 3 -9 -2 -12 -12z"/>
<path d="M831 2184 c0 -11 3 -14 6 -6 3 7 2 16 -1 19 -3 4 -6 -2 -5 -13z"/>
<path d="M857 2183 c3 -7 6 -13 8 -13 2 0 5 6 8 13 3 8 -1 14 -8 14 -7 0 -11
-6 -8 -14z"/>
<path d="M2731 2173 c-12 -8 -21 -11 -21 -6 0 12 -20 -20 -20 -32 0 -5 4 -4 9
4 5 7 14 10 20 7 7 -5 10 -2 9 6 -2 7 4 14 12 14 8 1 20 3 25 4 6 1 15 1 20 0
6 -1 6 2 2 6 -13 14 -35 13 -56 -3z"/>
<path d="M1476 2154 c-2 -6 -3 -29 -3 -52 1 -23 -2 -44 -8 -46 -7 -3 -7 -5 0
-5 16 -1 11 -201 -6 -212 -19 -12 -32 -11 -23 2 4 8 1 8 -12 2 -11 -5 -55 -9
-99 -8 -63 1 -79 5 -77 16 2 11 -1 10 -10 -2 -8 -9 -26 -15 -45 -14 -36 2 -34
7 -37 -98 0 -33 2 -61 7 -64 4 -2 7 0 7 6 0 14 48 7 69 -11 28 -24 36 -27 50
-19 10 6 9 10 -4 14 -10 5 -14 3 -9 -5 4 -7 3 -8 -4 -4 -13 8 -5 36 10 36 5 0
6 -4 3 -10 -3 -5 0 -10 8 -10 8 0 18 -7 21 -16 6 -17 26 -10 26 9 0 7 -4 6
-11 -3 -7 -10 -9 -11 -7 -2 2 8 7 13 12 12 5 -1 13 4 18 12 7 9 8 7 3 -7 -5
-15 -3 -17 6 -8 6 6 18 9 27 6 11 -5 13 -3 7 8 -5 8 -4 11 1 6 5 -5 9 -16 9
-24 0 -9 7 -18 15 -20 12 -4 12 -3 1 5 -10 8 -11 14 -1 28 9 15 10 15 6 2 -5
-16 18 -33 34 -23 4 3 10 -2 14 -10 3 -8 -3 -19 -12 -24 -14 -8 -14 -10 -2
-11 12 0 15 -16 14 -88 0 -49 -4 -93 -7 -99 -4 -7 -3 -15 3 -18 8 -5 5 -16 -6
-33 -14 -22 -15 -25 -2 -14 12 9 18 10 23 2 4 -6 13 -9 21 -6 9 3 19 -4 26
-19 8 -19 14 -22 20 -13 6 10 10 10 18 -2 6 -10 10 -11 10 -3 0 7 6 10 13 7 7
-2 21 2 31 9 16 12 16 14 2 14 -9 0 -16 -4 -16 -9 0 -4 -5 -8 -11 -8 -5 0 -8
4 -5 9 4 5 0 12 -6 15 -7 3 -1 3 14 1 27 -4 66 21 53 33 -3 4 -9 1 -13 -5 -4
-7 -8 19 -8 58 0 38 3 69 7 69 4 0 5 -13 4 -30 -1 -16 1 -27 5 -25 5 3 7 13 5
23 -3 22 14 44 28 35 6 -3 7 -1 3 6 -6 9 -11 9 -22 0 -11 -9 -14 -7 -14 15 0
15 -4 25 -8 22 -4 -2 -9 4 -9 15 -1 10 2 19 8 19 5 0 9 12 9 26 0 16 -4 23
-12 18 -7 -4 -8 -3 -4 4 4 6 13 9 20 6 8 -3 17 0 22 7 4 7 3 10 -4 5 -6 -3
-14 -1 -18 5 -4 8 -3 9 5 5 6 -4 14 0 17 9 9 24 25 -3 18 -30 -5 -20 -5 -20
10 -1 9 10 13 22 11 27 -3 4 -1 10 4 13 5 4 13 2 16 -4 5 -8 11 -8 20 0 9 7
16 6 25 -5 10 -12 15 -12 36 2 14 9 27 13 31 9 3 -3 0 -6 -8 -6 -10 -1 -9 -3
4 -11 9 -5 17 -15 17 -21 0 -6 -9 -3 -20 7 -17 16 -21 16 -35 2 -8 -9 -11 -18
-6 -21 5 -3 12 1 15 10 6 15 8 15 25 0 18 -17 20 -17 31 4 10 18 10 21 -2 14
-10 -6 -10 -4 1 9 12 15 16 16 30 4 9 -8 22 -12 30 -9 8 2 11 0 7 -6 -7 -12
19 -10 31 2 4 4 2 6 -6 4 -7 -1 -16 3 -19 11 -2 8 0 11 6 7 7 -4 8 3 2 25 -11
38 -4 55 16 38 20 -16 17 -6 -5 20 -11 12 -18 33 -17 46 3 21 0 23 -33 21 -20
-2 -41 1 -48 6 -7 5 -14 5 -18 -2 -3 -6 -12 -7 -18 -3 -17 10 -47 11 -41 1 3
-4 1 -8 -5 -8 -5 0 -13 5 -16 10 -4 7 -14 6 -28 -1 -16 -9 -22 -9 -25 0 -3 9
-7 9 -19 0 -11 -10 -16 -10 -22 0 -4 6 -14 11 -22 9 -9 -2 -14 7 -14 30 -1 18
2 35 6 37 4 3 5 -12 4 -33 -2 -20 -1 -32 2 -25 2 7 12 9 21 6 14 -4 14 -3 3 5
-17 12 -23 40 -10 48 5 3 9 0 9 -7 0 -7 3 -9 6 -6 10 10 -16 36 -30 31 -7 -3
-13 2 -13 10 0 8 6 12 12 9 9 -3 11 4 8 21 -3 14 -8 24 -12 22 -4 -3 -7 6 -7
19 0 13 5 21 12 18 7 -3 10 4 7 21 -3 14 -9 24 -12 21 -4 -2 -8 2 -8 10 0 11
4 12 13 4 13 -10 32 6 20 18 -3 4 -6 1 -6 -6 0 -9 -4 -8 -15 3 -8 8 -15 25
-15 38 0 22 -3 23 -75 23 -44 0 -76 -4 -79 -11z m-12 -473 c3 -5 -1 -11 -9
-14 -9 -4 -12 -1 -8 9 6 16 10 17 17 5z m116 -344 c0 -2 -8 -3 -18 -3 -10 0
-19 6 -19 13 0 8 6 9 19 2 10 -5 18 -11 18 -12z"/>
<path d="M3270 2165 c0 -5 5 -17 10 -25 5 -8 10 -10 10 -5 0 6 -5 17 -10 25
-5 8 -10 11 -10 5z"/>
<path d="M454 2127 c0 -15 6 -23 14 -20 10 4 10 9 0 22 -7 9 -13 17 -14 19 -1
2 -1 -8 0 -21z"/>
<path d="M1641 2134 c0 -11 3 -14 6 -6 3 7 2 16 -1 19 -3 4 -6 -2 -5 -13z"/>
<path d="M2155 2141 c-3 -5 -2 -12 3 -15 5 -3 9 1 9 9 0 17 -3 19 -12 6z"/>
<path d="M3225 2139 c-3 -4 2 -6 10 -5 21 3 28 13 10 13 -9 0 -18 -4 -20 -8z"/>
<path d="M470 2041 c0 -7 -4 -10 -8 -7 -4 2 -8 -4 -8 -15 0 -10 3 -19 7 -19 8
0 20 42 14 49 -3 2 -5 -1 -5 -8z"/>
<path d="M1648 2013 c7 -3 16 -2 19 1 4 3 -2 6 -13 5 -11 0 -14 -3 -6 -6z"/>
<path d="M2550 2000 c0 -5 5 -10 11 -10 5 0 7 5 4 10 -3 6 -8 10 -11 10 -2 0
-4 -4 -4 -10z"/>
<path d="M2481 1876 c-9 -10 -7 -16 6 -27 15 -11 16 -11 6 1 -10 11 -9 16 5
26 9 8 12 14 6 14 -6 0 -17 -6 -23 -14z"/>
<path d="M3427 1859 c7 -7 15 -10 18 -7 3 3 -2 9 -12 12 -14 6 -15 5 -6 -5z"/>
<path d="M2490 1819 c0 -5 5 -7 10 -4 6 3 10 8 10 11 0 2 -4 4 -10 4 -5 0 -10
-5 -10 -11z"/>
<path d="M1955 1800 c-3 -5 -1 -10 4 -10 6 0 11 5 11 10 0 6 -2 10 -4 10 -3 0
-8 -4 -11 -10z"/>
<path d="M995 1791 c-3 -5 -2 -12 3 -15 5 -3 9 1 9 9 0 17 -3 19 -12 6z"/>
<path d="M1950 1747 c0 -14 24 -57 32 -57 5 0 1 12 -9 28 -22 35 -23 36 -23
29z"/>
<path d="M2053 1725 c0 -8 4 -12 9 -9 5 3 6 10 3 15 -9 13 -12 11 -12 -6z"/>
<path d="M3445 1703 c-14 -31 -13 -40 1 -40 9 0 11 4 4 12 -6 7 -5 16 2 23 6
6 9 14 6 17 -3 3 -9 -2 -13 -12z"/>
<path d="M2473 1695 c0 -8 4 -12 9 -9 4 3 8 9 8 15 0 5 -4 9 -8 9 -5 0 -9 -7
-9 -15z"/>
<path d="M1216 1665 c4 -8 11 -15 16 -15 6 0 5 6 -2 15 -7 8 -14 15 -16 15 -2
0 -1 -7 2 -15z"/>
<path d="M1724 1660 c0 -13 4 -16 10 -10 7 7 7 13 0 20 -6 6 -10 3 -10 -10z"/>
<path d="M1759 1678 c-7 -29 -5 -36 7 -31 16 6 18 19 4 28 -5 3 -10 5 -11 3z"/>
<path d="M1884 1665 c3 -20 26 -44 26 -27 0 7 -5 12 -11 12 -5 0 -8 4 -4 9 3
5 1 12 -4 15 -5 4 -8 -1 -7 -9z"/>
<path d="M1376 1657 c5 -14 2 -16 -12 -11 -16 5 -16 4 -4 -5 20 -14 39 4 21
22 -10 10 -11 9 -5 -6z"/>
<path d="M2480 1640 c-9 -6 -10 -10 -3 -10 6 0 15 5 18 10 8 12 4 12 -15 0z"/>
<path d="M588 1594 c-4 -3 -4 -13 -1 -22 5 -11 3 -13 -7 -7 -8 5 -11 4 -7 -3
8 -12 32 -10 44 3 4 4 2 5 -4 1 -8 -5 -13 -1 -13 9 0 15 4 15 35 -4 19 -11 35
-18 35 -15 0 8 -24 29 -35 31 -6 1 -17 4 -26 8 -8 3 -18 3 -21 -1z"/>
<path d="M2075 1591 c-3 -5 -2 -12 3 -15 5 -3 9 1 9 9 0 17 -3 19 -12 6z"/>
<path d="M2487 1589 c7 -7 15 -10 18 -7 3 3 -2 9 -12 12 -14 6 -15 5 -6 -5z"/>
<path d="M2836 1583 c-6 -14 -5 -15 5 -6 7 7 10 15 7 18 -3 3 -9 -2 -12 -12z"/>
<path d="M516 1573 c-6 -14 -5 -15 5 -6 7 7 10 15 7 18 -3 3 -9 -2 -12 -12z"/>
<path d="M540 1578 c0 -4 4 -8 9 -8 6 0 12 4 15 8 3 5 -1 9 -9 9 -8 0 -15 -4
-15 -9z"/>
<path d="M681 1574 c0 -11 3 -14 6 -6 3 7 2 16 -1 19 -3 4 -6 -2 -5 -13z"/>
<path d="M806 1578 c3 -4 9 -8 15 -8 5 0 9 4 9 8 0 5 -7 9 -15 9 -8 0 -12 -4
-9 -9z"/>
<path d="M891 1574 c0 -11 3 -14 6 -6 3 7 2 16 -1 19 -3 4 -6 -2 -5 -13z"/>
<path d="M1646 1581 c-3 -5 0 -14 7 -19 10 -8 13 -6 14 9 2 19 -11 26 -21 10z"/>
<path d="M3433 1583 c4 -3 2 -12 -4 -19 -7 -8 -6 -14 2 -20 7 -4 9 -3 5 4 -3
6 -2 13 4 17 14 8 13 25 -2 25 -6 0 -8 -3 -5 -7z"/>
<path d="M459 1548 c-4 -15 -5 -47 -1 -43 3 3 12 -1 21 -8 14 -10 14 -10 3 5
-8 9 -11 22 -8 27 4 5 2 12 -4 16 -5 3 -10 5 -11 3z"/>
<path d="M2996 1538 c3 -5 10 -6 15 -3 13 9 11 12 -6 12 -8 0 -12 -4 -9 -9z"/>
<path d="M2535 1470 c3 -5 8 -10 11 -10 2 0 4 5 4 10 0 6 -5 10 -11 10 -5 0
-7 -4 -4 -10z"/>
<path d="M1446 1458 c3 -5 10 -6 15 -3 13 9 11 12 -6 12 -8 0 -12 -4 -9 -9z"/>
<path d="M3451 1454 c0 -11 3 -14 6 -6 3 7 2 16 -1 19 -3 4 -6 -2 -5 -13z"/>
<path d="M1645 1440 c-3 -5 -2 -10 4 -10 5 0 13 5 16 10 3 6 2 10 -4 10 -5 0
-13 -4 -16 -10z"/>
<path d="M2570 1429 c0 -5 5 -7 10 -4 6 3 10 8 10 11 0 2 -4 4 -10 4 -5 0 -10
-5 -10 -11z"/>
<path d="M1656 1415 c-11 -8 -15 -15 -9 -15 6 0 16 7 23 15 16 19 11 19 -14 0z"/>
<path d="M3429 1408 c-6 -21 -5 -38 2 -38 5 0 9 2 9 4 0 2 3 11 6 20 3 9 1 16
-5 16 -6 0 -11 -1 -12 -2z"/>
<path d="M3459 1373 c-13 -16 -12 -17 4 -4 16 13 21 21 13 21 -2 0 -10 -8 -17
-17z"/>
<path d="M451 1356 c-10 -12 -8 -17 8 -25 13 -8 22 -8 26 -1 4 6 1 9 -7 8 -8
-2 -12 4 -10 15 4 21 -2 22 -17 3z"/>
<path d="M2153 1345 c0 -8 4 -12 9 -9 5 3 6 10 3 15 -9 13 -12 11 -12 -6z"/>
<path d="M1466 1342 c-3 -5 1 -9 9 -9 8 0 12 4 9 9 -3 4 -7 8 -9 8 -2 0 -6 -4
-9 -8z"/>
<path d="M456 1307 c3 -10 9 -15 12 -12 3 3 0 11 -7 18 -10 9 -11 8 -5 -6z"/>
<path d="M2173 1295 c0 -8 4 -12 9 -9 5 3 6 10 3 15 -9 13 -12 11 -12 -6z"/>
<path d="M456 1231 c-4 -5 3 -7 14 -4 23 6 26 13 6 13 -8 0 -17 -4 -20 -9z"/>
<path d="M470 1191 c0 -6 4 -12 8 -15 5 -3 9 1 9 9 0 8 -4 15 -9 15 -4 0 -8
-4 -8 -9z"/>
<path d="M2279 1173 c-12 -16 -12 -17 2 -6 9 7 20 9 24 5 5 -4 5 -1 1 6 -9 16
-11 15 -27 -5z"/>
<path d="M3426 1162 c-3 -5 1 -15 8 -21 11 -10 14 -9 12 3 -3 21 -13 29 -20
18z"/>
<path d="M459 1109 c0 -2 -2 -18 -3 -34 -2 -24 2 -31 17 -31 15 0 16 2 4 11
-7 5 -12 16 -9 24 4 11 6 11 13 0 5 -8 9 -9 9 -3 0 11 -29 41 -31 33z"/>
<path d="M3346 1036 c8 -21 33 -28 30 -8 -2 9 -10 18 -19 20 -12 2 -15 -1 -11
-12z"/>
<path d="M3390 1020 c0 -5 5 -10 11 -10 5 0 7 5 4 10 -3 6 -8 10 -11 10 -2 0
-4 -4 -4 -10z"/>
<path d="M430 998 c0 -3 9 -6 20 -5 11 1 20 5 20 9 0 3 -9 6 -20 5 -11 -1 -20
-5 -20 -9z"/>
<path d="M3330 999 c0 -5 5 -7 10 -4 6 3 10 8 10 11 0 2 -4 4 -10 4 -5 0 -10
-5 -10 -11z"/>
<path d="M151 980 c14 -31 19 -36 19 -24 0 6 -7 19 -16 30 -14 18 -14 18 -3
-6z"/>
<path d="M2640 993 c0 -6 8 -17 18 -24 16 -13 16 -13 2 6 -8 11 -16 22 -17 24
-2 2 -3 0 -3 -6z"/>
<path d="M176 978 c3 -4 12 -8 20 -8 8 0 14 4 14 8 0 4 -9 8 -19 8 -11 0 -17
-4 -15 -8z"/>
<path d="M3115 960 c-3 -5 -1 -10 4 -10 6 0 11 5 11 10 0 6 -2 10 -4 10 -3 0
-8 -4 -11 -10z"/>
</g>
</svg>
